<svg width="95" height="18" viewBox="0 0 95 18" fill="none" xmlns="http://www.w3.org/2000/svg">
<path d="M12.5156 5L8.32031 17H4.57031L0.375 5H3.89063L6.38281 13.5859H6.50781L8.99219 5H12.5156ZM14.2188 17V5H17.5469V17H14.2188ZM15.8906 3.45312C15.3958 3.45312 14.9714 3.28906 14.6172 2.96094C14.2682 2.6276 14.0938 2.22917 14.0938 1.76562C14.0938 1.30729 14.2682 0.914062 14.6172 0.585938C14.9714 0.252604 15.3958 0.0859367 15.8906 0.0859367C16.3854 0.0859367 16.8073 0.252604 17.1563 0.585938C17.5104 0.914062 17.6875 1.30729 17.6875 1.76562C17.6875 2.22917 17.5104 2.6276 17.1563 2.96094C16.8073 3.28906 16.3854 3.45312 15.8906 3.45312ZM26.5957 5V7.5H19.3691V5H26.5957ZM21.0098 2.125H24.3379V13.3125C24.3379 13.6198 24.3848 13.8594 24.4785 14.0312C24.5723 14.1979 24.7025 14.3151 24.8691 14.3828C25.041 14.4505 25.2389 14.4844 25.4629 14.4844C25.6191 14.4844 25.7754 14.4714 25.9316 14.4453C26.0879 14.4141 26.2077 14.3906 26.291 14.375L26.8145 16.8516C26.6478 16.9036 26.4134 16.9635 26.1113 17.0313C25.8092 17.1042 25.4421 17.1484 25.0098 17.1641C24.2077 17.1953 23.5046 17.0885 22.9004 16.8437C22.3014 16.599 21.8353 16.2187 21.502 15.7031C21.1686 15.1875 21.0046 14.5365 21.0098 13.75V2.125ZM35.1465 5V7.5H27.9199V5H35.1465ZM29.5605 2.125H32.8887V13.3125C32.8887 13.6198 32.9355 13.8594 33.0293 14.0312C33.123 14.1979 33.2533 14.3151 33.4199 14.3828C33.5918 14.4505 33.7897 14.4844 34.0137 14.4844C34.1699 14.4844 34.3262 14.4714 34.4824 14.4453C34.6387 14.4141 34.7585 14.3906 34.8418 14.375L35.3652 16.8516C35.1986 16.9036 34.9642 16.9635 34.6621 17.0313C34.36 17.1042 33.9928 17.1484 33.5605 17.1641C32.7585 17.1953 32.0553 17.0885 31.4512 16.8437C30.8522 16.599 30.3861 16.2187 30.0527 15.7031C29.7194 15.1875 29.5553 14.5365 29.5605 13.75V2.125ZM40.7363 17.2266C39.9707 17.2266 39.2884 17.0938 38.6895 16.8281C38.0905 16.5573 37.6165 16.1589 37.2676 15.6328C36.9238 15.1016 36.752 14.4401 36.752 13.6484C36.752 12.9818 36.8743 12.4219 37.1191 11.9687C37.3639 11.5156 37.6973 11.151 38.1191 10.875C38.541 10.599 39.0202 10.3906 39.5566 10.25C40.0983 10.1094 40.666 10.0104 41.2598 9.95312C41.9577 9.88021 42.5202 9.8125 42.9473 9.75C43.3743 9.68229 43.6842 9.58333 43.877 9.45312C44.0697 9.32292 44.166 9.13021 44.166 8.875V8.82812C44.166 8.33333 44.0098 7.95052 43.6973 7.67969C43.39 7.40885 42.9525 7.27344 42.3848 7.27344C41.7858 7.27344 41.3092 7.40625 40.9551 7.67187C40.6009 7.93229 40.3665 8.26042 40.252 8.65625L37.1738 8.40625C37.3301 7.67708 37.6374 7.04687 38.0957 6.51562C38.554 5.97917 39.1452 5.56771 39.8691 5.28125C40.5983 4.98958 41.4421 4.84375 42.4004 4.84375C43.0671 4.84375 43.7051 4.92187 44.3145 5.07812C44.929 5.23437 45.4733 5.47656 45.9473 5.80469C46.4264 6.13281 46.804 6.55469 47.0801 7.07031C47.3561 7.58073 47.4941 8.19271 47.4941 8.90625V17H44.3379V15.3359H44.2441C44.0514 15.7109 43.7936 16.0417 43.4707 16.3281C43.1478 16.6094 42.7598 16.8307 42.3066 16.9922C41.8535 17.1484 41.3301 17.2266 40.7363 17.2266ZM41.6895 14.9297C42.179 14.9297 42.6113 14.8333 42.9863 14.6406C43.3613 14.4427 43.6556 14.1771 43.8691 13.8438C44.0827 13.5104 44.1895 13.1328 44.1895 12.7109V11.4375C44.0853 11.5052 43.9421 11.5677 43.7598 11.625C43.5827 11.6771 43.3822 11.7266 43.1582 11.7734C42.9342 11.8151 42.7103 11.8542 42.4863 11.8906C42.2624 11.9219 42.0592 11.9505 41.877 11.9766C41.4863 12.0339 41.1452 12.125 40.8535 12.25C40.5618 12.375 40.3353 12.5443 40.1738 12.7578C40.0124 12.9661 39.9316 13.2266 39.9316 13.5391C39.9316 13.9922 40.0957 14.3385 40.4238 14.5781C40.7572 14.8125 41.179 14.9297 41.6895 14.9297ZM50.0762 17V5H53.248V7.11719H53.3887C53.6387 6.41406 54.0553 5.85937 54.6387 5.45312C55.222 5.04687 55.9199 4.84375 56.7324 4.84375C57.5553 4.84375 58.2559 5.04948 58.834 5.46094C59.4121 5.86719 59.7975 6.41927 59.9902 7.11719H60.1152C60.36 6.42969 60.8027 5.88021 61.4434 5.46875C62.0892 5.05208 62.8522 4.84375 63.7324 4.84375C64.8522 4.84375 65.7611 5.20052 66.459 5.91406C67.1621 6.6224 67.5137 7.6276 67.5137 8.92969V17H64.1934V9.58594C64.1934 8.91927 64.0163 8.41927 63.6621 8.08594C63.3079 7.7526 62.8652 7.58594 62.334 7.58594C61.7298 7.58594 61.2585 7.77865 60.9199 8.16406C60.5814 8.54427 60.4121 9.04687 60.4121 9.67187V17H57.1855V9.51562C57.1855 8.92708 57.0163 8.45833 56.6777 8.10937C56.3444 7.76042 55.9043 7.58594 55.3574 7.58594C54.9876 7.58594 54.6543 7.67969 54.3574 7.86719C54.0658 8.04948 53.834 8.30729 53.6621 8.64062C53.4902 8.96875 53.4043 9.35417 53.4043 9.79687V17H50.0762ZM75.6113 17.2344C74.377 17.2344 73.3145 16.9844 72.4238 16.4844C71.5384 15.9792 70.8561 15.2656 70.377 14.3437C69.8978 13.4167 69.6582 12.3203 69.6582 11.0547C69.6582 9.82031 69.8978 8.73698 70.377 7.80469C70.8561 6.8724 71.5306 6.14583 72.4004 5.625C73.2754 5.10417 74.3014 4.84375 75.4785 4.84375C76.2702 4.84375 77.0072 4.97135 77.6895 5.22656C78.377 5.47656 78.9759 5.85417 79.4863 6.35937C80.002 6.86458 80.403 7.5 80.6895 8.26562C80.9759 9.02604 81.1191 9.91667 81.1191 10.9375V11.8516H70.9863V9.78906H77.9863C77.9863 9.3099 77.8822 8.88542 77.6738 8.51563C77.4655 8.14583 77.1764 7.85677 76.8066 7.64844C76.4421 7.4349 76.0176 7.32812 75.5332 7.32812C75.028 7.32812 74.5801 7.44531 74.1895 7.67969C73.804 7.90885 73.502 8.21875 73.2832 8.60937C73.0645 8.99479 72.9525 9.42448 72.9473 9.89844V11.8594C72.9473 12.4531 73.0566 12.9661 73.2754 13.3984C73.4993 13.8307 73.8145 14.1641 74.2207 14.3984C74.627 14.6328 75.1087 14.75 75.666 14.75C76.0358 14.75 76.3743 14.6979 76.6816 14.5938C76.9889 14.4896 77.252 14.3333 77.4707 14.125C77.6895 13.9167 77.8561 13.6615 77.9707 13.3594L81.0488 13.5625C80.8926 14.3021 80.5723 14.9479 80.0879 15.5C79.6087 16.0469 78.9889 16.474 78.2285 16.7813C77.4733 17.0833 76.6009 17.2344 75.6113 17.2344ZM87.7129 17.1953C86.8014 17.1953 85.9759 16.9609 85.2363 16.4922C84.502 16.0182 83.9186 15.3229 83.4863 14.4062C83.0592 13.4844 82.8457 12.3542 82.8457 11.0156C82.8457 9.64062 83.0671 8.4974 83.5098 7.58594C83.9525 6.66927 84.541 5.98437 85.2754 5.53125C86.015 5.07292 86.8249 4.84375 87.7051 4.84375C88.377 4.84375 88.9368 4.95833 89.3848 5.1875C89.8379 5.41146 90.2025 5.69271 90.4785 6.03125C90.7598 6.36458 90.9733 6.69271 91.1191 7.01562H91.2207V1H94.541V17H91.2598V15.0781H91.1191C90.9629 15.4115 90.7415 15.7422 90.4551 16.0703C90.1738 16.3932 89.8066 16.6615 89.3535 16.875C88.9056 17.0885 88.3587 17.1953 87.7129 17.1953ZM88.7676 14.5469C89.304 14.5469 89.7572 14.401 90.127 14.1094C90.502 13.8125 90.7884 13.3984 90.9863 12.8672C91.1895 12.3359 91.291 11.7135 91.291 11C91.291 10.2865 91.1921 9.66667 90.9941 9.14062C90.7962 8.61458 90.5098 8.20833 90.1348 7.92187C89.7598 7.63542 89.304 7.49219 88.7676 7.49219C88.2207 7.49219 87.7598 7.64062 87.3848 7.9375C87.0098 8.23437 86.7259 8.64583 86.5332 9.17187C86.3405 9.69792 86.2441 10.3073 86.2441 11C86.2441 11.6979 86.3405 12.3151 86.5332 12.8516C86.7311 13.3828 87.015 13.7995 87.3848 14.1016C87.7598 14.3984 88.2207 14.5469 88.7676 14.5469Z" fill="#00B0FF"/>
</svg>
